<?xml version="1.0" encoding="UTF-8" standalone="no"?>
<!DOCTYPE svg PUBLIC "-//W3C//DTD SVG 1.1//EN"
 "http://www.w3.org/Graphics/SVG/1.1/DTD/svg11.dtd">
<!-- Generated by graphviz version 2.38.0 (20140413.2041)
 -->
<!-- Title: models_diagram Pages: 1 -->
<svg width="595pt" height="230pt"
 viewBox="0.00 0.00 595.30 230.00" xmlns="http://www.w3.org/2000/svg" xmlns:xlink="http://www.w3.org/1999/xlink">
<g id="graph0" class="graph" transform="scale(1 1) rotate(0) translate(4 226)">
<title>models_diagram</title>
<polygon fill="none" stroke="none" points="-4,4 -4,-226 591.298,-226 591.298,4 -4,4"/>
<!-- _diagram_info -->
<g id="node1" class="node"><title>_diagram_info</title>
<text text-anchor="start" x="8" y="-207.6" font-family="Times,serif" font-size="13.00">Models diagram</text>
<text text-anchor="start" x="8" y="-193.6" font-family="Times,serif" font-size="13.00">Date: Mar 07 2017 &#45; 16:14</text>
<text text-anchor="start" x="8" y="-179.6" font-family="Times,serif" font-size="13.00">Migration version: 20170307190940</text>
<text text-anchor="start" x="8" y="-165.6" font-family="Times,serif" font-size="13.00">Generated by RailRoady 1.5.2</text>
<text text-anchor="start" x="8" y="-151.6" font-family="Times,serif" font-size="13.00">http://railroady.prestonlee.com</text>
</g>
<!-- ApplicationRecord -->
<g id="node2" class="node"><title>ApplicationRecord</title>
<ellipse fill="none" stroke="black" cx="309" cy="-183" rx="77.1866" ry="18"/>
<text text-anchor="middle" x="309" y="-179.3" font-family="Times,serif" font-size="14.00">ApplicationRecord</text>
</g>
<!-- Cart -->
<g id="node3" class="node"><title>Cart</title>
<ellipse fill="none" stroke="black" cx="530" cy="-90" rx="27" ry="18"/>
<text text-anchor="middle" x="530" y="-86.3" font-family="Times,serif" font-size="14.00">Cart</text>
</g>
<!-- Order -->
<g id="node5" class="node"><title>Order</title>
<ellipse fill="none" stroke="black" cx="530" cy="-18" rx="31.3957" ry="18"/>
<text text-anchor="middle" x="530" y="-14.3" font-family="Times,serif" font-size="14.00">Order</text>
</g>
<!-- Cart&#45;&gt;Order -->
<g id="edge1" class="edge"><title>Cart&#45;&gt;Order</title>
<path fill="none" stroke="#b906ed" d="M530,-63.6398C530,-58.0629 530,-52.1319 530,-46.4761"/>
<ellipse fill="none" stroke="#b906ed" cx="530" cy="-67.6966" rx="4" ry="4"/>
<polygon fill="#b906ed" stroke="#b906ed" points="530,-46.1043 534.5,-36.1043 530,-41.1043 530,-36.1043 530,-36.1043 530,-36.1043 530,-41.1043 525.5,-36.1044 530,-46.1043 530,-46.1043"/>
</g>
<!-- Category -->
<g id="node4" class="node"><title>Category</title>
<ellipse fill="none" stroke="black" cx="447" cy="-183" rx="42.7926" ry="18"/>
<text text-anchor="middle" x="447" y="-179.3" font-family="Times,serif" font-size="14.00">Category</text>
</g>
<!-- Product -->
<g id="node6" class="node"><title>Product</title>
<ellipse fill="none" stroke="black" cx="447" cy="-90" rx="38.1938" ry="18"/>
<text text-anchor="middle" x="447" y="-86.3" font-family="Times,serif" font-size="14.00">Product</text>
</g>
<!-- Category&#45;&gt;Product -->
<g id="edge2" class="edge"><title>Category&#45;&gt;Product</title>
<path fill="none" stroke="#86a1d2" d="M447,-156.729C447,-144.725 447,-130.362 447,-118.129"/>
<ellipse fill="none" stroke="#86a1d2" cx="447" cy="-160.884" rx="4" ry="4"/>
<polygon fill="#86a1d2" stroke="#86a1d2" points="447,-118.04 451.5,-108.04 447,-113.04 447,-108.04 447,-108.04 447,-108.04 447,-113.04 442.5,-108.04 447,-118.04 447,-118.04"/>
</g>
<!-- Product&#45;&gt;Order -->
<g id="edge3" class="edge"><title>Product&#45;&gt;Order</title>
<path fill="none" stroke="#b298fb" d="M471.342,-68.471C482.051,-59.4388 494.611,-48.846 505.355,-39.7846"/>
<ellipse fill="none" stroke="#b298fb" cx="468.068" cy="-71.2322" rx="4.00002" ry="4.00002"/>
<polygon fill="#b298fb" stroke="#b298fb" points="505.512,-39.6521 516.058,-36.645 509.335,-36.4286 513.157,-33.2051 513.157,-33.2051 513.157,-33.2051 509.335,-36.4286 510.256,-29.7651 505.512,-39.6521 505.512,-39.6521"/>
</g>
<!-- User -->
<g id="node7" class="node"><title>User</title>
<ellipse fill="none" stroke="black" cx="560" cy="-183" rx="27.0966" ry="18"/>
<text text-anchor="middle" x="560" y="-179.3" font-family="Times,serif" font-size="14.00">User</text>
</g>
<!-- User&#45;&gt;Cart -->
<g id="edge4" class="edge"><title>User&#45;&gt;Cart</title>
<path fill="none" stroke="#7684fa" d="M551.937,-157.543C547.852,-145.152 542.887,-130.09 538.714,-117.432"/>
<ellipse fill="none" stroke="#7684fa" cx="553.245" cy="-161.51" rx="4.00001" ry="4.00001"/>
<polygon fill="#7684fa" stroke="#7684fa" points="538.7,-117.39 539.843,-106.484 537.135,-112.642 535.569,-107.893 535.569,-107.893 535.569,-107.893 537.135,-112.642 531.295,-109.302 538.7,-117.39 538.7,-117.39"/>
</g>
<!-- User&#45;&gt;Order -->
<g id="edge5" class="edge"><title>User&#45;&gt;Order</title>
<path fill="none" stroke="#7820e2" d="M566.196,-157.063C570.713,-134.368 574.673,-100.205 566,-72 562.763,-61.4743 556.646,-51.1634 550.36,-42.4752"/>
<ellipse fill="none" stroke="#7820e2" cx="565.3" cy="-161.251" rx="4.00001" ry="4.00001"/>
<polygon fill="#7820e2" stroke="#7820e2" points="550.225,-42.2996 547.683,-31.6324 547.172,-38.3398 544.119,-34.3801 544.119,-34.3801 544.119,-34.3801 547.172,-38.3398 540.555,-37.1278 550.225,-42.2996 550.225,-42.2996"/>
</g>
</g>
</svg>
