<?xml version="1.0" encoding="UTF-8" standalone="no"?>
<!DOCTYPE svg PUBLIC "-//W3C//DTD SVG 1.1//EN"
 "http://www.w3.org/Graphics/SVG/1.1/DTD/svg11.dtd">
<!-- Generated by graphviz version 2.38.0 (20140413.2041)
 -->
<!-- Title: models_diagram Pages: 1 -->
<svg width="1045pt" height="596pt"
 viewBox="0.00 0.00 1045.50 596.00" xmlns="http://www.w3.org/2000/svg" xmlns:xlink="http://www.w3.org/1999/xlink">
<g id="graph0" class="graph" transform="scale(1 1) rotate(0) translate(4 592)">
<title>models_diagram</title>
<polygon fill="none" stroke="none" points="-4,4 -4,-592 1041.5,-592 1041.5,4 -4,4"/>
<!-- _diagram_info -->
<g id="node1" class="node"><title>_diagram_info</title>
<text text-anchor="start" x="8" y="-499.1" font-family="Times,serif" font-size="13.00">Models diagram</text>
<text text-anchor="start" x="8" y="-485.1" font-family="Times,serif" font-size="13.00">Date: Mar 07 2017 &#45; 16:14</text>
<text text-anchor="start" x="8" y="-471.1" font-family="Times,serif" font-size="13.00">Migration version: 20170307190940</text>
<text text-anchor="start" x="8" y="-457.1" font-family="Times,serif" font-size="13.00">Generated by RailRoady 1.5.2</text>
<text text-anchor="start" x="8" y="-443.1" font-family="Times,serif" font-size="13.00">http://railroady.prestonlee.com</text>
</g>
<!-- ApplicationRecord -->
<g id="node2" class="node"><title>ApplicationRecord</title>
<ellipse fill="none" stroke="black" cx="309" cy="-474.5" rx="77.1866" ry="18"/>
<text text-anchor="middle" x="309" y="-470.8" font-family="Times,serif" font-size="14.00">ApplicationRecord</text>
</g>
<!-- Cart -->
<g id="node3" class="node"><title>Cart</title>
<path fill="none" stroke="black" d="M678,-188.5C678,-188.5 898,-188.5 898,-188.5 904,-188.5 910,-194.5 910,-200.5 910,-200.5 910,-297.5 910,-297.5 910,-303.5 904,-309.5 898,-309.5 898,-309.5 678,-309.5 678,-309.5 672,-309.5 666,-303.5 666,-297.5 666,-297.5 666,-200.5 666,-200.5 666,-194.5 672,-188.5 678,-188.5"/>
<text text-anchor="middle" x="788" y="-294.3" font-family="Times,serif" font-size="14.00">Cart</text>
<polyline fill="none" stroke="black" points="666,-286.5 910,-286.5 "/>
<text text-anchor="start" x="674" y="-271.3" font-family="Times,serif" font-size="14.00">id :integer</text>
<text text-anchor="start" x="674" y="-256.3" font-family="Times,serif" font-size="14.00">total_price :integer</text>
<text text-anchor="start" x="674" y="-241.3" font-family="Times,serif" font-size="14.00">open :boolean</text>
<text text-anchor="start" x="674" y="-226.3" font-family="Times,serif" font-size="14.00">user_id :integer</text>
<text text-anchor="start" x="674" y="-211.3" font-family="Times,serif" font-size="14.00">created_at :timestamp without time zone</text>
<text text-anchor="start" x="674" y="-196.3" font-family="Times,serif" font-size="14.00">updated_at :timestamp without time zone</text>
</g>
<!-- Order -->
<g id="node5" class="node"><title>Order</title>
<path fill="none" stroke="black" d="M678,-0.5C678,-0.5 898,-0.5 898,-0.5 904,-0.5 910,-6.5 910,-12.5 910,-12.5 910,-124.5 910,-124.5 910,-130.5 904,-136.5 898,-136.5 898,-136.5 678,-136.5 678,-136.5 672,-136.5 666,-130.5 666,-124.5 666,-124.5 666,-12.5 666,-12.5 666,-6.5 672,-0.5 678,-0.5"/>
<text text-anchor="middle" x="788" y="-121.3" font-family="Times,serif" font-size="14.00">Order</text>
<polyline fill="none" stroke="black" points="666,-113.5 910,-113.5 "/>
<text text-anchor="start" x="674" y="-98.3" font-family="Times,serif" font-size="14.00">id :integer</text>
<text text-anchor="start" x="674" y="-83.3" font-family="Times,serif" font-size="14.00">product_id :integer</text>
<text text-anchor="start" x="674" y="-68.3" font-family="Times,serif" font-size="14.00">user_id :integer</text>
<text text-anchor="start" x="674" y="-53.3" font-family="Times,serif" font-size="14.00">price :integer</text>
<text text-anchor="start" x="674" y="-38.3" font-family="Times,serif" font-size="14.00">cart_id :integer</text>
<text text-anchor="start" x="674" y="-23.3" font-family="Times,serif" font-size="14.00">created_at :timestamp without time zone</text>
<text text-anchor="start" x="674" y="-8.3" font-family="Times,serif" font-size="14.00">updated_at :timestamp without time zone</text>
</g>
<!-- Cart&#45;&gt;Order -->
<g id="edge1" class="edge"><title>Cart&#45;&gt;Order</title>
<path fill="none" stroke="#496770" d="M788,-179.83C788,-168.993 788,-157.717 788,-146.69"/>
<ellipse fill="none" stroke="#496770" cx="788" cy="-184.066" rx="4" ry="4"/>
<polygon fill="#496770" stroke="#496770" points="788,-146.654 792.5,-136.654 788,-141.654 788,-136.654 788,-136.654 788,-136.654 788,-141.654 783.5,-136.654 788,-146.654 788,-146.654"/>
</g>
<!-- Category -->
<g id="node4" class="node"><title>Category</title>
<path fill="none" stroke="black" d="M416,-429C416,-429 636,-429 636,-429 642,-429 648,-435 648,-441 648,-441 648,-508 648,-508 648,-514 642,-520 636,-520 636,-520 416,-520 416,-520 410,-520 404,-514 404,-508 404,-508 404,-441 404,-441 404,-435 410,-429 416,-429"/>
<text text-anchor="middle" x="526" y="-504.8" font-family="Times,serif" font-size="14.00">Category</text>
<polyline fill="none" stroke="black" points="404,-497 648,-497 "/>
<text text-anchor="start" x="412" y="-481.8" font-family="Times,serif" font-size="14.00">id :integer</text>
<text text-anchor="start" x="412" y="-466.8" font-family="Times,serif" font-size="14.00">name :character varying</text>
<text text-anchor="start" x="412" y="-451.8" font-family="Times,serif" font-size="14.00">created_at :timestamp without time zone</text>
<text text-anchor="start" x="412" y="-436.8" font-family="Times,serif" font-size="14.00">updated_at :timestamp without time zone</text>
</g>
<!-- Product -->
<g id="node6" class="node"><title>Product</title>
<path fill="none" stroke="black" d="M416,-173.5C416,-173.5 636,-173.5 636,-173.5 642,-173.5 648,-179.5 648,-185.5 648,-185.5 648,-312.5 648,-312.5 648,-318.5 642,-324.5 636,-324.5 636,-324.5 416,-324.5 416,-324.5 410,-324.5 404,-318.5 404,-312.5 404,-312.5 404,-185.5 404,-185.5 404,-179.5 410,-173.5 416,-173.5"/>
<text text-anchor="middle" x="526" y="-309.3" font-family="Times,serif" font-size="14.00">Product</text>
<polyline fill="none" stroke="black" points="404,-301.5 648,-301.5 "/>
<text text-anchor="start" x="412" y="-286.3" font-family="Times,serif" font-size="14.00">id :integer</text>
<text text-anchor="start" x="412" y="-271.3" font-family="Times,serif" font-size="14.00">name :character varying</text>
<text text-anchor="start" x="412" y="-256.3" font-family="Times,serif" font-size="14.00">stock :integer</text>
<text text-anchor="start" x="412" y="-241.3" font-family="Times,serif" font-size="14.00">photo :character varying</text>
<text text-anchor="start" x="412" y="-226.3" font-family="Times,serif" font-size="14.00">price :integer</text>
<text text-anchor="start" x="412" y="-211.3" font-family="Times,serif" font-size="14.00">created_at :timestamp without time zone</text>
<text text-anchor="start" x="412" y="-196.3" font-family="Times,serif" font-size="14.00">updated_at :timestamp without time zone</text>
<text text-anchor="start" x="412" y="-181.3" font-family="Times,serif" font-size="14.00">category_id :integer</text>
</g>
<!-- Category&#45;&gt;Product -->
<g id="edge2" class="edge"><title>Category&#45;&gt;Product</title>
<path fill="none" stroke="#bd7430" d="M526,-420.541C526,-394.895 526,-363.474 526,-334.621"/>
<ellipse fill="none" stroke="#bd7430" cx="526" cy="-424.809" rx="4" ry="4"/>
<polygon fill="#bd7430" stroke="#bd7430" points="526,-334.536 530.5,-324.536 526,-329.536 526,-324.536 526,-324.536 526,-324.536 526,-329.536 521.5,-324.536 526,-334.536 526,-334.536"/>
</g>
<!-- Product&#45;&gt;Order -->
<g id="edge3" class="edge"><title>Product&#45;&gt;Order</title>
<path fill="none" stroke="#e35e4a" d="M642.294,-168.769C655.159,-160.004 668.215,-151.109 680.958,-142.427"/>
<ellipse fill="none" stroke="#e35e4a" cx="638.899" cy="-171.082" rx="4.00002" ry="4.00002"/>
<polygon fill="#e35e4a" stroke="#e35e4a" points="681.017,-142.387 691.815,-140.476 685.149,-139.572 689.282,-136.757 689.282,-136.757 689.282,-136.757 685.149,-139.572 686.748,-133.038 681.017,-142.387 681.017,-142.387"/>
</g>
<!-- User -->
<g id="node7" class="node"><title>User</title>
<path fill="none" stroke="black" d="M736.5,-361.5C736.5,-361.5 1025.5,-361.5 1025.5,-361.5 1031.5,-361.5 1037.5,-367.5 1037.5,-373.5 1037.5,-373.5 1037.5,-575.5 1037.5,-575.5 1037.5,-581.5 1031.5,-587.5 1025.5,-587.5 1025.5,-587.5 736.5,-587.5 736.5,-587.5 730.5,-587.5 724.5,-581.5 724.5,-575.5 724.5,-575.5 724.5,-373.5 724.5,-373.5 724.5,-367.5 730.5,-361.5 736.5,-361.5"/>
<text text-anchor="middle" x="881" y="-572.3" font-family="Times,serif" font-size="14.00">User</text>
<polyline fill="none" stroke="black" points="724.5,-564.5 1037.5,-564.5 "/>
<text text-anchor="start" x="732.5" y="-549.3" font-family="Times,serif" font-size="14.00">id :integer</text>
<text text-anchor="start" x="732.5" y="-534.3" font-family="Times,serif" font-size="14.00">email :character varying</text>
<text text-anchor="start" x="732.5" y="-519.3" font-family="Times,serif" font-size="14.00">encrypted_password :character varying</text>
<text text-anchor="start" x="732.5" y="-504.3" font-family="Times,serif" font-size="14.00">reset_password_token :character varying</text>
<text text-anchor="start" x="732.5" y="-489.3" font-family="Times,serif" font-size="14.00">reset_password_sent_at :timestamp without time zone</text>
<text text-anchor="start" x="732.5" y="-474.3" font-family="Times,serif" font-size="14.00">remember_created_at :timestamp without time zone</text>
<text text-anchor="start" x="732.5" y="-459.3" font-family="Times,serif" font-size="14.00">sign_in_count :integer</text>
<text text-anchor="start" x="732.5" y="-444.3" font-family="Times,serif" font-size="14.00">current_sign_in_at :timestamp without time zone</text>
<text text-anchor="start" x="732.5" y="-429.3" font-family="Times,serif" font-size="14.00">last_sign_in_at :timestamp without time zone</text>
<text text-anchor="start" x="732.5" y="-414.3" font-family="Times,serif" font-size="14.00">current_sign_in_ip :inet</text>
<text text-anchor="start" x="732.5" y="-399.3" font-family="Times,serif" font-size="14.00">last_sign_in_ip :inet</text>
<text text-anchor="start" x="732.5" y="-384.3" font-family="Times,serif" font-size="14.00">created_at :timestamp without time zone</text>
<text text-anchor="start" x="732.5" y="-369.3" font-family="Times,serif" font-size="14.00">updated_at :timestamp without time zone</text>
</g>
<!-- User&#45;&gt;Cart -->
<g id="edge4" class="edge"><title>User&#45;&gt;Cart</title>
<path fill="none" stroke="#751ae2" d="M831.23,-353.893C826.301,-342.046 821.421,-330.318 816.813,-319.244"/>
<ellipse fill="none" stroke="#751ae2" cx="832.827" cy="-357.73" rx="4.00002" ry="4.00002"/>
<polygon fill="#751ae2" stroke="#751ae2" points="816.681,-318.927 816.994,-307.965 814.76,-314.311 812.839,-309.694 812.839,-309.694 812.839,-309.694 814.76,-314.311 808.685,-311.423 816.681,-318.927 816.681,-318.927"/>
</g>
<!-- User&#45;&gt;Order -->
<g id="edge5" class="edge"><title>User&#45;&gt;Order</title>
<path fill="none" stroke="#cb008a" d="M926.08,-353.247C940.165,-296.17 945.875,-228.483 919,-173 914.016,-162.71 907.458,-153.134 899.929,-144.296"/>
<ellipse fill="none" stroke="#cb008a" cx="925.03" cy="-357.353" rx="4.00001" ry="4.00001"/>
<polygon fill="#cb008a" stroke="#cb008a" points="899.785,-144.137 896.415,-133.702 896.431,-140.429 893.077,-136.72 893.077,-136.72 893.077,-136.72 896.431,-140.429 889.74,-139.739 899.785,-144.137 899.785,-144.137"/>
</g>
</g>
</svg>
